<mxfile host="app.diagrams.net" modified="2023-10-14T08:28:44.905Z" agent="Mozilla/5.0 (Windows NT 10.0; Win64; x64; rv:109.0) Gecko/20100101 Firefox/118.0" etag="XOyYfMX0eI5oZJJKBKPP" version="22.0.4" type="github">
  <diagram id="kgpKYQtTHZ0yAKxKKP6v" name="Page-1">
    <mxGraphModel dx="704" dy="631" grid="1" gridSize="10" guides="1" tooltips="1" connect="1" arrows="1" fold="1" page="1" pageScale="1" pageWidth="291" pageHeight="413" background="#ffffff" math="0" shadow="0">
      <root>
        <mxCell id="0" />
        <mxCell id="1" parent="0" />
        <mxCell id="WxSYXkxritZbYMWab-58-31" value="&lt;div&gt;&lt;br&gt;&lt;/div&gt;&lt;div&gt;&lt;br&gt;&lt;/div&gt;&lt;div&gt;&lt;br&gt;&lt;/div&gt;&lt;div&gt;&lt;br&gt;&lt;/div&gt;&lt;div&gt;&lt;br&gt;&lt;/div&gt;&lt;div&gt;&lt;br&gt;&lt;/div&gt;" style="rounded=0;whiteSpace=wrap;html=1;shadow=1;" parent="1" vertex="1">
          <mxGeometry x="1" y="180" width="870" height="120" as="geometry" />
        </mxCell>
        <mxCell id="WxSYXkxritZbYMWab-58-30" value="&lt;div&gt;&lt;br&gt;&lt;/div&gt;&lt;div&gt;&lt;br&gt;&lt;/div&gt;&lt;div&gt;&lt;br&gt;&lt;/div&gt;&lt;div&gt;&lt;br&gt;&lt;/div&gt;&lt;div&gt;&lt;br&gt;&lt;/div&gt;&lt;div&gt;&lt;br&gt;&lt;/div&gt;" style="rounded=0;whiteSpace=wrap;html=1;shadow=1;" parent="1" vertex="1">
          <mxGeometry x="1" y="307" width="870" height="120" as="geometry" />
        </mxCell>
        <mxCell id="WxSYXkxritZbYMWab-58-29" value="&lt;div&gt;&lt;br&gt;&lt;/div&gt;&lt;div&gt;&lt;br&gt;&lt;/div&gt;&lt;div&gt;&lt;br&gt;&lt;/div&gt;&lt;div&gt;&lt;br&gt;&lt;/div&gt;&lt;div&gt;&lt;br&gt;&lt;/div&gt;&lt;div&gt;&lt;br&gt;&lt;/div&gt;" style="rounded=0;whiteSpace=wrap;html=1;shadow=1;" parent="1" vertex="1">
          <mxGeometry x="1" y="434" width="870" height="120" as="geometry" />
        </mxCell>
        <mxCell id="WxSYXkxritZbYMWab-58-17" value="&lt;div&gt;&lt;br&gt;&lt;/div&gt;&lt;div&gt;&lt;br&gt;&lt;/div&gt;&lt;div&gt;&lt;br&gt;&lt;/div&gt;&lt;div&gt;&lt;br&gt;&lt;/div&gt;&lt;div&gt;&lt;br&gt;&lt;/div&gt;&lt;div&gt;&lt;br&gt;&lt;/div&gt;&lt;div&gt;&lt;br&gt;&lt;/div&gt;&lt;div&gt;Operative &amp;amp; Externe Daten&lt;/div&gt;&lt;div&gt;Strukturierte und unstrukturierte Daten&lt;br&gt;&lt;/div&gt;" style="rounded=0;whiteSpace=wrap;html=1;shadow=1;" parent="1" vertex="1">
          <mxGeometry x="1" y="560" width="870" height="170" as="geometry" />
        </mxCell>
        <mxCell id="WxSYXkxritZbYMWab-58-1" value="Data Mart&lt;br&gt;Core Data Warehouse" style="shape=trapezoid;perimeter=trapezoidPerimeter;whiteSpace=wrap;html=1;fixedSize=1;fillColor=#dae8fc;strokeColor=#6c8ebf;" parent="1" vertex="1">
          <mxGeometry x="358" y="434" width="362" height="120" as="geometry" />
        </mxCell>
        <mxCell id="WxSYXkxritZbYMWab-58-4" value="Data Lake" style="shape=parallelogram;perimeter=parallelogramPerimeter;whiteSpace=wrap;html=1;fixedSize=1;fillColor=#dae8fc;strokeColor=#6c8ebf;" parent="1" vertex="1">
          <mxGeometry x="180" y="434" width="195" height="120" as="geometry" />
        </mxCell>
        <mxCell id="WxSYXkxritZbYMWab-58-6" value="&lt;div&gt;Modellorientierte Analysen&lt;/div&gt;&lt;div&gt;Berichtsorientierte Analysen (Reporting &amp;amp; OLAP)&lt;/div&gt;&lt;div&gt;Datenabfrage &amp;amp; Exploration&lt;br&gt;&lt;/div&gt;" style="shape=trapezoid;perimeter=trapezoidPerimeter;whiteSpace=wrap;html=1;fixedSize=1;fillColor=#dae8fc;strokeColor=#6c8ebf;" parent="1" vertex="1">
          <mxGeometry x="200" y="307" width="500" height="120" as="geometry" />
        </mxCell>
        <mxCell id="WxSYXkxritZbYMWab-58-7" value="&lt;div&gt;Visualisierung &amp;amp; PrÃ¤sentation&lt;/div&gt;&lt;div&gt;Informationsdistribution&lt;/div&gt;&lt;div&gt;Informationszugriff&lt;br&gt;&lt;/div&gt;" style="shape=trapezoid;perimeter=trapezoidPerimeter;whiteSpace=wrap;html=1;fixedSize=1;fillColor=#dae8fc;strokeColor=#6c8ebf;" parent="1" vertex="1">
          <mxGeometry x="220" y="180" width="460" height="120" as="geometry" />
        </mxCell>
        <mxCell id="WxSYXkxritZbYMWab-58-8" value="ERP" style="shape=cylinder3;whiteSpace=wrap;html=1;boundedLbl=1;backgroundOutline=1;size=15;fillColor=#f5f5f5;fontColor=#333333;strokeColor=#666666;" parent="1" vertex="1">
          <mxGeometry x="231" y="579" width="100" height="80" as="geometry" />
        </mxCell>
        <mxCell id="WxSYXkxritZbYMWab-58-9" value="PDM" style="shape=cylinder3;whiteSpace=wrap;html=1;boundedLbl=1;backgroundOutline=1;size=15;fillColor=#f5f5f5;fontColor=#333333;strokeColor=#666666;" parent="1" vertex="1">
          <mxGeometry x="343" y="579" width="105" height="80" as="geometry" />
        </mxCell>
        <mxCell id="WxSYXkxritZbYMWab-58-11" value="IoT" style="shape=cylinder3;whiteSpace=wrap;html=1;boundedLbl=1;backgroundOutline=1;size=15;fillColor=#f5f5f5;fontColor=#333333;strokeColor=#666666;" parent="1" vertex="1">
          <mxGeometry x="459" y="579" width="105" height="80" as="geometry" />
        </mxCell>
        <mxCell id="WxSYXkxritZbYMWab-58-12" value="Externe Daten" style="shape=cylinder3;whiteSpace=wrap;html=1;boundedLbl=1;backgroundOutline=1;size=15;fillColor=#f5f5f5;fontColor=#333333;strokeColor=#666666;" parent="1" vertex="1">
          <mxGeometry x="574" y="579" width="105" height="80" as="geometry" />
        </mxCell>
        <mxCell id="WxSYXkxritZbYMWab-58-13" value="ETL" style="shape=singleArrow;direction=north;whiteSpace=wrap;html=1;arrowWidth=0.8454545454545455;arrowSize=0.43;fillColor=#f5f5f5;fontColor=#333333;strokeColor=#666666;" parent="1" vertex="1">
          <mxGeometry x="380" y="545" width="140" height="30" as="geometry" />
        </mxCell>
        <mxCell id="WxSYXkxritZbYMWab-58-16" value="&lt;font size=&quot;1&quot;&gt;&lt;b&gt;&lt;font style=&quot;font-size: 21px;&quot;&gt;Business Intelligence &amp;amp; Analytics (BIA&lt;/font&gt;&lt;/b&gt;&lt;/font&gt;" style="text;html=1;strokeColor=none;fillColor=none;align=center;verticalAlign=middle;whiteSpace=wrap;rounded=0;" parent="1" vertex="1">
          <mxGeometry x="245.75" y="131" width="408.5" height="30" as="geometry" />
        </mxCell>
        <mxCell id="WxSYXkxritZbYMWab-58-23" value="Datenbereitstellung" style="text;html=1;strokeColor=none;fillColor=none;align=center;verticalAlign=middle;whiteSpace=wrap;rounded=0;rotation=0;" parent="1" vertex="1">
          <mxGeometry x="28" y="428" width="60" height="30" as="geometry" />
        </mxCell>
        <mxCell id="WxSYXkxritZbYMWab-58-25" value="&lt;div&gt;Informationsgenerierung&lt;/div&gt;" style="text;html=1;strokeColor=none;fillColor=none;align=center;verticalAlign=middle;whiteSpace=wrap;rounded=0;rotation=0;" parent="1" vertex="1">
          <mxGeometry x="42" y="301" width="60" height="30" as="geometry" />
        </mxCell>
        <mxCell id="WxSYXkxritZbYMWab-58-28" value="&lt;div&gt;Informationsdistribution&lt;/div&gt;" style="text;html=1;strokeColor=none;fillColor=none;align=center;verticalAlign=middle;whiteSpace=wrap;rounded=0;rotation=0;" parent="1" vertex="1">
          <mxGeometry x="40" y="172" width="60" height="30" as="geometry" />
        </mxCell>
      </root>
    </mxGraphModel>
  </diagram>
</mxfile>
